<svg width="1495" height="334" viewBox="0 0 1495 334" fill="none" xmlns="http://www.w3.org/2000/svg">
<path d="M304.084 295.792C298.728 309.375 286.007 319.245 270.847 320.475L383.857 38.2079C389.213 24.6254 401.933 14.7546 417.093 13.525L304.084 295.792ZM622.106 320.613C605.875 320.613 591.949 310.742 586.005 296.677L467.223 -4.31828e-07H330.849V13.3871H350.434C361.251 13.3871 370.021 22.1663 370.021 32.9794C370.021 35.3466 369.605 37.6103 368.831 39.7132L291.282 233.419L212.736 37.2196C209.047 27.8658 203.029 19.6842 195.389 13.3871C185.235 5.02161 172.232 -4.31828e-07 158.046 -4.31828e-07H0.248047V13.3871H65.8358C82.0669 13.3871 95.9918 23.2579 101.936 37.323L220.718 334H357.092V320.613H337.506C326.69 320.613 317.92 311.845 317.92 301.021C317.92 298.653 318.336 296.39 319.11 294.287L319.482 293.345L330.455 265.938C330.499 265.835 330.537 265.731 330.573 265.628L396.66 100.581L475.205 296.78C478.895 306.134 484.912 314.316 492.552 320.613C502.706 328.978 515.709 334 529.894 334H687.693V320.613H622.106Z" fill="white"/>
<path d="M1224.79 277.775C1222.25 277.775 1219.89 277.35 1217.73 276.499C1215.57 275.638 1213.7 274.442 1212.12 272.891C1210.54 271.34 1209.31 269.524 1208.42 267.433C1207.54 265.33 1207.09 263.043 1207.09 260.561C1207.09 258.079 1207.54 255.792 1208.42 253.69C1209.31 251.598 1210.55 249.771 1212.15 248.231C1213.74 246.68 1215.62 245.485 1217.78 244.623C1219.94 243.773 1222.29 243.348 1224.84 243.348C1227.29 243.348 1229.59 243.761 1231.75 244.577C1233.91 245.404 1235.74 246.634 1237.22 248.277L1234.94 250.552C1233.55 249.128 1232.02 248.105 1230.35 247.484C1228.67 246.852 1226.87 246.542 1224.93 246.542C1222.9 246.542 1221.02 246.887 1219.28 247.576C1217.53 248.266 1216.02 249.254 1214.73 250.53C1213.44 251.805 1212.43 253.287 1211.71 254.977C1210.98 256.666 1210.62 258.527 1210.62 260.561C1210.62 262.595 1210.98 264.457 1211.71 266.146C1212.43 267.835 1213.44 269.317 1214.73 270.593C1216.02 271.868 1217.53 272.857 1219.28 273.546C1221.02 274.236 1222.9 274.58 1224.93 274.58C1226.87 274.58 1228.67 274.259 1230.35 273.615C1232.02 272.972 1233.55 271.937 1234.94 270.524L1237.22 272.799C1235.74 274.443 1233.91 275.683 1231.75 276.522C1229.59 277.361 1227.27 277.775 1224.79 277.775Z" fill="white"/>
<path d="M1261.67 277.488V243.635H1265.25V274.397H1284.2V277.488H1261.67Z" fill="white"/>
<path d="M1326.47 274.58C1328.49 274.58 1330.38 274.236 1332.1 273.546C1333.82 272.857 1335.32 271.868 1336.59 270.593C1337.87 269.317 1338.86 267.835 1339.57 266.146C1340.28 264.457 1340.64 262.595 1340.64 260.561C1340.64 258.527 1340.28 256.666 1339.57 254.977C1338.86 253.287 1337.87 251.805 1336.59 250.53C1335.32 249.254 1333.82 248.266 1332.1 247.576C1330.38 246.887 1328.49 246.542 1326.47 246.542C1324.44 246.542 1322.55 246.887 1320.8 247.576C1319.07 248.266 1317.56 249.254 1316.29 250.53C1315.01 251.805 1314.01 253.287 1313.29 254.977C1312.57 256.666 1312.2 258.527 1312.2 260.561C1312.2 262.561 1312.57 264.411 1313.29 266.123C1314.01 267.835 1315.01 269.317 1316.29 270.593C1317.56 271.868 1319.07 272.857 1320.8 273.546C1322.55 274.236 1324.44 274.58 1326.47 274.58ZM1326.47 277.775C1323.92 277.775 1321.55 277.35 1319.38 276.499C1317.21 275.638 1315.32 274.431 1313.73 272.868C1312.13 271.305 1310.89 269.478 1310 267.398C1309.12 265.319 1308.67 263.043 1308.67 260.561C1308.67 258.079 1309.12 255.792 1310 253.713C1310.89 251.644 1312.13 249.817 1313.73 248.254C1315.32 246.691 1317.2 245.485 1319.36 244.623C1321.52 243.773 1323.88 243.348 1326.47 243.348C1329.01 243.348 1331.36 243.773 1333.53 244.623C1335.69 245.485 1337.56 246.68 1339.16 248.231C1340.75 249.771 1341.99 251.598 1342.88 253.69C1343.76 255.792 1344.21 258.079 1344.21 260.561C1344.21 263.043 1343.76 265.33 1342.88 267.433C1341.99 269.524 1340.75 271.34 1339.16 272.891C1337.56 274.442 1335.69 275.638 1333.53 276.499C1331.36 277.35 1329.01 277.775 1326.47 277.775Z" fill="white"/>
<path d="M1381.25 277.775C1378.73 277.775 1376.32 277.361 1374.02 276.545C1371.71 275.718 1369.93 274.661 1368.68 273.374L1370.08 270.616C1371.26 271.777 1372.87 272.753 1374.88 273.546C1376.9 274.339 1379.02 274.73 1381.25 274.73C1383.37 274.73 1385.11 274.465 1386.44 273.937C1387.77 273.397 1388.76 272.684 1389.4 271.777C1390.02 270.88 1390.34 269.881 1390.34 268.777C1390.34 267.456 1389.96 266.399 1389.2 265.594C1388.44 264.778 1387.45 264.146 1386.22 263.675C1384.99 263.216 1383.65 262.802 1382.17 262.446C1380.68 262.09 1379.19 261.71 1377.71 261.308C1376.23 260.906 1374.87 260.366 1373.63 259.688C1372.39 259.01 1371.39 258.114 1370.63 257.01C1369.87 255.896 1369.49 254.437 1369.49 252.632C1369.49 250.955 1369.94 249.415 1370.83 248.013C1371.71 246.611 1373.07 245.485 1374.9 244.623C1376.74 243.773 1379.1 243.348 1381.97 243.348C1383.87 243.348 1385.75 243.612 1387.63 244.14C1389.5 244.681 1391.11 245.405 1392.46 246.347L1391.26 249.197C1389.81 248.231 1388.27 247.519 1386.64 247.071C1385.01 246.623 1383.43 246.393 1381.93 246.393C1379.89 246.393 1378.21 246.669 1376.89 247.209C1375.57 247.76 1374.59 248.496 1373.96 249.415C1373.34 250.334 1373.02 251.368 1373.02 252.529C1373.02 253.85 1373.4 254.919 1374.16 255.723C1374.92 256.528 1375.92 257.16 1377.16 257.608C1378.4 258.068 1379.77 258.47 1381.25 258.815C1382.73 259.171 1384.2 259.561 1385.67 259.975C1387.13 260.4 1388.49 260.94 1389.73 261.595C1390.97 262.262 1391.97 263.135 1392.73 264.238C1393.49 265.33 1393.87 266.766 1393.87 268.536C1393.87 270.179 1393.42 271.708 1392.51 273.11C1391.61 274.511 1390.23 275.638 1388.37 276.499C1386.52 277.35 1384.14 277.775 1381.25 277.775Z" fill="white"/>
<path d="M1421.51 258.769H1439.4V261.814H1421.51V258.769ZM1421.9 274.397H1442.26V277.488H1418.33V243.635H1441.54V246.726H1421.9V274.397Z" fill="white"/>
<path d="M1478.61 277.488V246.726H1466.72V243.635H1494.09V246.726H1482.2V277.488H1478.61Z" fill="white"/>
<path d="M816.104 202.6L745.767 62.9484H775.322L830.571 177.124H831.594L886.636 62.9484H914.973L844.647 202.6H816.104Z" fill="white"/>
<path d="M993.677 157.957C980.623 156.934 967.167 156.532 953.516 156.532C930.269 156.532 922.731 161.623 922.731 172.022C922.731 182.422 929.856 187.926 947.391 187.926C961.87 187.926 978.589 184.662 993.677 181.204V157.957ZM998.561 202.6L997.745 196.487C980.623 200.773 959.629 205.461 942.3 205.461C931.487 205.461 919.468 204.232 910.907 198.119C903.357 192.614 899.278 183.64 899.278 173.252C899.278 161.623 904.38 150.821 916.606 145.524C927.213 140.835 940.669 140.215 953.711 140.215C965.133 140.215 980.416 140.835 993.677 141.847V139.606C993.677 121.255 982.462 115.141 952.7 115.141C941.071 115.141 927.822 115.75 914.975 116.98V98.8355C928.844 97.606 944.334 96.8016 957.584 96.8016C975.119 96.8016 993.057 98.4219 1004.07 106.581C1015.89 115.348 1017.73 126.759 1017.73 141.847V202.6H998.561Z" fill="white"/>
<path d="M1038.1 202.6V56.2261H1062.15V202.6H1038.1Z" fill="white"/>
<path d="M1145.52 113.107C1119.23 113.107 1109.44 123.3 1107.6 140.422H1183.23C1182.42 121.875 1172.03 113.107 1145.52 113.107ZM1142.26 205.461C1124.73 205.461 1110.05 203.221 1098.83 194.039C1086.81 183.847 1082.53 168.552 1082.53 151.223C1082.53 135.124 1087.63 117.589 1101.9 107.396C1114.13 98.8355 1129.62 96.8016 1145.52 96.8016C1159.79 96.8016 1176.51 98.2265 1189.15 107.19C1205.46 118.405 1207.09 135.94 1207.3 156.935H1107.41C1108.01 174.263 1115.76 186.696 1147.76 186.696C1166.11 186.696 1185.28 183.847 1202.2 181.204V198.728C1183.23 201.991 1162.24 205.461 1142.26 205.461Z" fill="white"/>
<path d="M1227.67 202.6V99.651H1247.44L1248.91 108.246C1265.22 100.099 1281.08 96.8011 1299.43 96.8011C1300.04 96.8011 1301.06 96.8011 1302.49 96.8011V117.795C1299.83 117.795 1296.77 117.589 1294.33 117.589C1279.85 117.589 1269.46 119.427 1251.72 123.702V202.6H1227.67Z" fill="white"/>
<path d="M1347.73 202.6H1323.87V99.651H1347.93V202.6H1347.73ZM1322.86 77.4272V56.2261H1348.95V77.4272H1322.86Z" fill="white"/>
<path d="M1432.31 113.107C1406.02 113.107 1396.23 123.3 1394.39 140.422H1470.02C1469.22 121.875 1458.82 113.107 1432.31 113.107ZM1429.05 205.461C1411.52 205.461 1396.84 203.221 1385.62 194.039C1373.6 183.847 1369.32 168.552 1369.32 151.223C1369.32 135.124 1374.42 117.589 1388.69 107.396C1400.92 98.8355 1416.41 96.8016 1432.31 96.8016C1446.58 96.8016 1463.3 98.2265 1475.94 107.19C1492.25 118.405 1493.88 135.94 1494.09 156.935H1394.2C1394.8 174.263 1402.55 186.696 1434.55 186.696C1452.9 186.696 1472.07 183.847 1488.99 181.204V198.728C1470.02 201.991 1449.03 205.461 1429.05 205.461Z" fill="white"/>
<path d="M1485.99 75.2771L1482.55 69.9682H1484.93L1488.37 75.2771H1485.99ZM1479.35 68.934H1482.38C1483.48 68.934 1484.33 68.6927 1484.94 68.2101C1485.55 67.7275 1485.85 67.0495 1485.85 66.1762C1485.85 65.3029 1485.55 64.6364 1484.94 64.1652C1484.33 63.6941 1483.48 63.4529 1482.38 63.4529H1479.35V68.934ZM1477.04 75.2771V61.4994H1482.55C1484.3 61.4994 1485.66 61.9246 1486.64 62.7634C1487.63 63.6138 1488.13 64.7513 1488.13 66.1762C1488.13 67.647 1487.63 68.7961 1486.64 69.6235C1485.66 70.4509 1484.3 70.8646 1482.55 70.8646H1479.38V75.2771H1477.04ZM1481.9 79.0003C1483.39 79.0003 1484.78 78.7245 1486.06 78.1729C1487.35 77.6213 1488.47 76.863 1489.44 75.8977C1490.4 74.9325 1491.15 73.7948 1491.68 72.4963C1492.21 71.2093 1492.47 69.8074 1492.47 68.3136C1492.47 66.8197 1492.21 65.4293 1491.68 64.1423C1491.15 62.8668 1490.41 61.7522 1489.47 60.8099C1488.53 59.8677 1487.43 59.1207 1486.15 58.5806C1484.87 58.0405 1483.48 57.7762 1481.97 57.7762C1480.45 57.7762 1479.04 58.0405 1477.74 58.5806C1476.45 59.1207 1475.33 59.8791 1474.38 60.8558C1473.44 61.8326 1472.71 62.9587 1472.18 64.2342C1471.65 65.5098 1471.38 66.8886 1471.38 68.3825C1471.38 69.8763 1471.65 71.2667 1472.18 72.5537C1472.71 73.8407 1473.44 74.9669 1474.38 75.9322C1475.33 76.8974 1476.44 77.6443 1477.73 78.1844C1479.01 78.7244 1480.4 79.0003 1481.9 79.0003ZM1481.9 80.54C1480.17 80.54 1478.58 80.2298 1477.11 79.6208C1475.64 79.0002 1474.35 78.127 1473.25 77.0124C1472.14 75.8977 1471.29 74.6107 1470.68 73.1398C1470.07 71.669 1469.76 70.0832 1469.76 68.3825C1469.76 66.6818 1470.07 65.0961 1470.69 63.6252C1471.32 62.1659 1472.18 60.8674 1473.28 59.7527C1474.38 58.6381 1475.68 57.7762 1477.15 57.1557C1478.63 56.5352 1480.24 56.2249 1481.97 56.2249C1483.69 56.2249 1485.29 56.5237 1486.77 57.1328C1488.25 57.7418 1489.54 58.6036 1490.63 59.7067C1491.72 60.8099 1492.57 62.0854 1493.18 63.5448C1493.78 65.0042 1494.09 66.5899 1494.09 68.3136C1494.09 70.0372 1493.78 71.6345 1493.16 73.1168C1492.54 74.5992 1491.68 75.8977 1490.56 77.0124C1489.45 78.127 1488.15 79.0002 1486.68 79.6208C1485.22 80.2298 1483.62 80.54 1481.9 80.54Z" fill="white"/>
</svg>
